<?xml version="1.0" standalone="no"?>
<!DOCTYPE svg PUBLIC "-//W3C//DTD SVG 20010904//EN"
 "http://www.w3.org/TR/2001/REC-SVG-20010904/DTD/svg10.dtd">
<svg version="1.0" xmlns="http://www.w3.org/2000/svg"
 width="236.000000pt" height="236.000000pt" viewBox="0 0 236.000000 236.000000"
 preserveAspectRatio="xMidYMid meet">
<metadata>
Created by potrace 1.11, written by Peter Selinger 2001-2013
</metadata>
<g transform="translate(0.000000,236.000000) scale(0.100000,-0.100000)"
fill="#000000" stroke="none">
<path d="M1485 1575 c-41 -40 -29 -106 22 -126 39 -15 77 -2 97 32 48 81 -53
161 -119 94z"/>
<path d="M0 1502 c0 -5 14 -9 32 -10 59 -2 61 -8 60 -249 -1 -215 -8 -276 -34
-272 -27 3 -51 -1 -44 -8 9 -9 296 -11 296 -2 0 4 -17 9 -39 13 -21 3 -43 12
-49 19 -7 8 -10 90 -9 242 l2 230 24 3 c111 16 196 -129 142 -242 -24 -48 -58
-76 -99 -80 -14 -2 -28 -8 -30 -15 -4 -13 73 -7 123 9 65 21 135 124 135 196
0 26 3 27 65 24 71 -3 109 -63 85 -134 -17 -51 -31 -58 -120 -59 l-80 0 -1
-78 c-2 -106 -1 -102 -29 -116 -29 -15 -32 -14 78 -14 89 -1 112 5 63 14 -27
6 -29 10 -33 54 -1 26 -2 63 0 81 3 29 6 32 33 30 24 -2 40 -16 85 -76 73 -97
114 -117 224 -109 84 5 123 21 170 67 17 17 32 30 34 30 1 0 0 -17 -3 -37 -5
-28 -12 -39 -31 -44 -31 -9 -28 -9 135 -13 134 -3 198 10 253 51 18 14 38 36
44 49 16 35 24 29 21 -18 -3 -56 -9 -68 -34 -68 -12 0 -19 -3 -16 -6 9 -10
188 -11 194 -2 2 5 -7 8 -21 8 -14 0 -27 4 -31 9 -6 11 -15 131 -9 131 2 0 10
-15 18 -34 34 -81 135 -126 272 -122 129 3 140 12 138 107 -1 87 2 99 27 99
10 0 19 3 19 8 0 4 -39 6 -87 5 -105 -1 -118 -3 -78 -12 30 -6 30 -6 33 -85 3
-92 -1 -97 -72 -90 -123 12 -202 120 -182 249 15 93 72 135 178 131 85 -3 116
-26 183 -137 47 -78 50 -88 51 -154 1 -76 -8 -105 -33 -105 -9 0 -13 -3 -10
-6 8 -8 186 -8 194 0 4 3 -5 6 -18 6 -41 0 -49 18 -49 105 0 82 0 82 55 171
58 93 95 134 122 134 9 0 13 3 9 7 -9 10 -136 10 -136 1 0 -5 5 -8 11 -8 17 0
5 -34 -42 -116 -26 -44 -46 -71 -52 -65 -5 5 -30 46 -57 92 -34 60 -45 88 -38
97 12 14 13 14 -149 13 -158 -1 -245 -36 -281 -113 -9 -21 -20 -38 -23 -38 -8
0 -3 105 6 119 3 6 13 11 21 11 8 0 14 3 14 8 0 8 -169 6 -178 -2 -3 -3 5 -6
17 -6 25 0 30 -10 34 -63 4 -40 -8 -50 -18 -16 -9 29 -89 77 -140 85 -63 9
-315 11 -315 2 0 -5 9 -8 19 -8 22 0 30 -9 36 -40 5 -26 1 -25 -43 9 -48 37
-92 51 -159 51 -59 0 -140 -17 -149 -32 -3 -5 -1 -15 5 -22 10 -11 18 -10 49
6 75 38 172 5 213 -74 33 -63 33 -178 0 -232 -41 -66 -123 -81 -196 -36 -33
20 -135 132 -135 147 0 4 12 19 26 34 38 40 55 96 40 134 -20 47 -64 67 -155
68 -78 1 -79 1 -96 34 -10 18 -34 43 -54 55 -34 21 -49 23 -233 26 -117 2
-198 0 -198 -6z m1302 -152 c84 -24 131 -94 129 -194 -2 -79 -30 -129 -90
-158 -48 -24 -144 -29 -163 -10 -8 8 -14 265 -9 355 1 14 10 17 49 17 26 0 64
-5 84 -10z"/>
<path d="M14 820 c-1 -51 2 -60 17 -60 13 0 17 7 16 26 -2 20 3 27 20 30 20 3
23 -1 23 -26 0 -19 5 -30 14 -30 10 0 15 16 18 58 3 50 0 58 -14 59 -13 1 -18
-6 -18 -23 0 -19 -5 -24 -26 -24 -23 0 -26 3 -22 25 4 18 1 25 -11 25 -13 0
-16 -12 -17 -60z"/>
<path d="M293 820 l0 -60 33 0 c18 0 36 4 39 10 4 6 -4 9 -17 7 -17 -1 -23 3
-23 18 0 14 6 19 18 17 9 -2 17 2 17 8 0 5 -9 10 -21 10 -14 0 -19 5 -17 18 2
10 11 16 22 14 11 -2 15 1 11 7 -3 6 -19 11 -34 11 -27 0 -27 -1 -28 -60z"/>
<path d="M560 876 c0 -2 -11 -29 -25 -60 -20 -45 -22 -56 -10 -56 8 0 14 5 13
12 -4 18 34 22 44 4 8 -14 38 -23 38 -12 0 8 -52 116 -56 116 -2 0 -4 -2 -4
-4z m10 -55 c0 -6 -4 -13 -10 -16 -5 -3 -10 1 -10 9 0 9 5 16 10 16 6 0 10 -4
10 -9z"/>
<path d="M774 823 l1 -58 38 -3 c30 -3 37 0 37 15 0 13 -3 15 -8 5 -5 -7 -16
-10 -26 -6 -13 5 -16 16 -13 55 2 40 0 49 -13 49 -14 0 -16 -11 -16 -57z"/>
<path d="M973 867 c-4 -6 3 -8 15 -5 21 6 22 3 22 -48 0 -45 3 -54 18 -54 14
0 16 8 14 50 -4 45 -2 50 17 50 12 0 21 4 21 8 0 12 -100 10 -107 -1z"/>
<path d="M1232 820 c-1 -51 1 -60 16 -60 13 0 18 8 17 26 0 21 6 28 24 30 21
4 23 1 19 -26 -4 -27 -2 -30 21 -29 14 0 21 3 15 5 -6 3 -8 24 -4 57 5 46 3
53 -12 54 -13 1 -18 -5 -18 -23 0 -19 -5 -24 -26 -24 -23 0 -26 3 -22 25 4 19
1 25 -11 25 -14 0 -17 -11 -19 -60z"/>
<path d="M1523 868 c-32 -15 -35 -72 -5 -95 19 -14 82 -17 82 -4 0 5 -9 7 -20
4 -11 -3 -27 0 -35 7 -18 15 -20 61 -3 78 15 15 48 16 48 2 0 -5 4 -10 10 -10
5 0 7 7 4 15 -7 17 -48 19 -81 3z"/>
<path d="M1777 826 c-32 -66 -32 -66 -11 -66 8 0 13 4 10 9 -3 5 1 14 8 20 11
10 19 7 34 -10 36 -38 42 -16 13 45 l-27 59 -27 -57z m28 -6 c3 -5 -1 -10 -10
-10 -9 0 -13 5 -10 10 3 6 8 10 10 10 2 0 7 -4 10 -10z"/>
<path d="M2010 821 c0 -48 3 -57 18 -58 15 -1 18 4 15 25 l-4 27 21 -27 c12
-16 31 -28 43 -28 13 0 17 3 11 8 -23 15 -35 51 -24 71 12 24 1 33 -47 37
l-33 2 0 -57z m56 10 c-13 -20 -26 -11 -26 16 0 25 1 26 16 11 9 -9 13 -21 10
-27z"/>
<path d="M2269 876 c-1 -1 -3 -27 -4 -58 l-3 -58 34 0 c18 0 36 4 39 10 4 6
-4 9 -17 7 -17 -1 -23 3 -23 18 0 14 6 19 18 17 9 -2 17 2 17 8 0 5 -9 10 -20
10 -11 0 -20 7 -20 15 0 14 12 19 33 16 4 0 7 3 7 8 0 7 -53 13 -61 7z"/>
</g>
</svg>
